<svg width="14" height="15" viewBox="0 0 14 15" fill="none" xmlns="http://www.w3.org/2000/svg">
<path d="M10.833 0.5V1.83333M2.83301 0.5V1.83333" stroke="#565656" stroke-linecap="round" stroke-linejoin="round"/>
<path d="M6.82969 7.8335H6.83567M6.82969 10.5002H6.83567M9.49337 7.8335H9.49935M4.16602 7.8335H4.172M4.16602 10.5002H4.172" stroke="#565656" stroke-width="1.3" stroke-linecap="round" stroke-linejoin="round"/>
<path d="M1.16602 4.5H12.4993" stroke="#565656" stroke-linecap="round" stroke-linejoin="round"/>
<path d="M0.5 7.32891C0.5 4.42404 0.5 2.9716 1.33475 2.06918C2.16949 1.16675 3.51299 1.16675 6.2 1.16675H7.46667C10.1537 1.16675 11.4972 1.16675 12.3319 2.06918C13.1667 2.9716 13.1667 4.42404 13.1667 7.32891V7.67125C13.1667 10.5761 13.1667 12.0286 12.3319 12.931C11.4972 13.8334 10.1537 13.8334 7.46667 13.8334H6.2C3.51299 13.8334 2.16949 13.8334 1.33475 12.931C0.5 12.0286 0.5 10.5761 0.5 7.67125V7.32891Z" stroke="#565656" stroke-linecap="round" stroke-linejoin="round"/>
<path d="M0.833008 4.5H12.833" stroke="#565656" stroke-linecap="round" stroke-linejoin="round"/>
</svg>
