<svg width="14" height="14" viewBox="0 0 14 14" fill="none" xmlns="http://www.w3.org/2000/svg">
<path d="M9.65007 5.6499L10.4678 6.3547C10.8115 6.65099 10.9834 6.79914 10.9834 6.98324C10.9834 7.16733 10.8115 7.31548 10.4678 7.61177L9.65007 8.31657" stroke="#383838" stroke-width="1.3" stroke-linecap="round" stroke-linejoin="round"/>
<path d="M4.31673 5.6499L3.49904 6.3547C3.15528 6.65099 2.9834 6.79914 2.9834 6.98324C2.9834 7.16733 3.15528 7.31548 3.49904 7.61177L4.31673 8.31657" stroke="#383838" stroke-width="1.3" stroke-linecap="round" stroke-linejoin="round"/>
<path d="M7.65072 4.98315L6.31738 8.98315" stroke="#383838" stroke-width="1.3" stroke-linecap="round" stroke-linejoin="round"/>
<path d="M0.650391 6.98324C0.650391 3.99767 0.650391 2.50489 1.57789 1.5774C2.50538 0.649902 3.99816 0.649902 6.98372 0.649902C9.96929 0.649902 11.4621 0.649902 12.3896 1.5774C13.3171 2.50489 13.3171 3.99767 13.3171 6.98324C13.3171 9.9688 13.3171 11.4616 12.3896 12.3891C11.4621 13.3166 9.96929 13.3166 6.98372 13.3166C3.99816 13.3166 2.50538 13.3166 1.57789 12.3891C0.650391 11.4616 0.650391 9.9688 0.650391 6.98324Z" stroke="#383838" stroke-width="1.3"/>
</svg>
