<svg width="16" height="16" viewBox="0 0 16 16" fill="none" xmlns="http://www.w3.org/2000/svg">
<path d="M6.66634 13.0001C4.15218 13.0001 2.89511 13.0001 2.11406 12.219C1.33301 11.438 1.33301 10.1809 1.33301 7.66675V7.00008C1.33301 4.48592 1.33301 3.22885 2.11406 2.4478C2.89511 1.66675 4.15218 1.66675 6.66634 1.66675H8.99967C11.1913 1.66675 12.2872 1.66675 13.0247 2.27205C13.1597 2.38286 13.2836 2.50668 13.3944 2.6417C13.9997 3.37927 13.9997 4.47509 13.9997 6.66675" stroke="#383838" stroke-width="1.3" stroke-linecap="round" stroke-linejoin="round"/>
<path d="M1.33301 5.66675H13.9997" stroke="#383838" stroke-width="1.3" stroke-linecap="round" stroke-linejoin="round"/>
<path d="M3.66602 3.66675H3.67267M6.32603 3.66675H6.33268" stroke="#383838" stroke-width="1.5" stroke-linecap="round" stroke-linejoin="round"/>
<path d="M9.7804 14.3335H8.66602V13.2191C8.66602 12.8655 8.80649 12.5264 9.05654 12.2763L12.7071 8.62639C13.0976 8.23587 13.7308 8.23586 14.1213 8.62639L14.3738 8.87884C14.7643 9.26937 14.7643 9.90253 14.3738 10.2931L10.7232 13.943C10.4732 14.193 10.134 14.3335 9.7804 14.3335Z" stroke="#383838" stroke-width="1.3" stroke-linejoin="round"/>
</svg>
