<svg width="16" height="16" viewBox="0 0 16 16" fill="none" xmlns="http://www.w3.org/2000/svg">
<circle cx="10" cy="8" r="2" stroke="#383838" stroke-width="1.3" stroke-linejoin="round"/>
<path d="M6 14C7.10457 14 8 13.1046 8 12V10H6C4.89543 10 4 10.8954 4 12C4 13.1046 4.89543 14 6 14Z" stroke="#383838" stroke-width="1.3" stroke-linejoin="round"/>
<path d="M8 6V10H6C4.89543 10 4 9.10457 4 8C4 6.89543 4.89543 6 6 6H8Z" stroke="#383838" stroke-width="1.3" stroke-linecap="round" stroke-linejoin="round"/>
<path d="M8 2V6H6C4.89543 6 4 5.10457 4 4C4 2.89543 4.89543 2 6 2H8Z" stroke="#383838" stroke-width="1.3" stroke-linecap="round" stroke-linejoin="round"/>
<path d="M8 2V6H10C11.1046 6 12 5.10457 12 4C12 2.89543 11.1046 2 10 2H8Z" stroke="#383838" stroke-width="1.3" stroke-linecap="round" stroke-linejoin="round"/>
</svg>
