<svg width="15" height="14" viewBox="0 0 15 14" fill="none" xmlns="http://www.w3.org/2000/svg">
<path d="M4.9834 8.6499H9.65006M4.9834 5.31657H7.31673" stroke="#383838" stroke-width="1.3" stroke-linecap="round" stroke-linejoin="round"/>
<path d="M8.76413 12.9103C11.5528 12.7249 13.7741 10.4721 13.9569 7.64382C13.9927 7.09035 13.9927 6.51719 13.9569 5.96372C13.7741 3.13549 11.5528 0.882658 8.76413 0.697285C7.81274 0.634044 6.81944 0.634173 5.86999 0.697285C3.08131 0.882658 0.859997 3.13549 0.677217 5.96372C0.641448 6.51719 0.641448 7.09035 0.677217 7.64382C0.743787 8.67389 1.19935 9.62764 1.73566 10.433C2.04706 10.9968 1.84155 11.7005 1.5172 12.3151C1.28333 12.7583 1.1664 12.9799 1.26029 13.14C1.35417 13.3 1.5639 13.3051 1.98334 13.3154C2.81283 13.3356 3.37218 13.1004 3.81618 12.773C4.06799 12.5873 4.1939 12.4944 4.28068 12.4838C4.36746 12.4731 4.53824 12.5434 4.87973 12.6841C5.18666 12.8105 5.54303 12.8885 5.86999 12.9103C6.81944 12.9734 7.81274 12.9735 8.76413 12.9103Z" stroke="#383838" stroke-width="1.3" stroke-linejoin="round"/>
</svg>
