<svg width="14" height="15" viewBox="0 0 14 15" fill="none" xmlns="http://www.w3.org/2000/svg">
<path d="M7.98633 12.6498C7.98633 12.6498 8.65299 12.6498 9.31966 13.9832C9.31966 13.9832 11.4373 10.6498 13.3197 9.98315" stroke="#383838" stroke-width="1.3" stroke-linecap="round" stroke-linejoin="round"/>
<path d="M3.65332 9.98324H6.31999M3.65332 6.6499H8.98665" stroke="#383838" stroke-width="1.3" stroke-linecap="round"/>
<path d="M3.31966 1.6499C2.28246 1.68102 1.66407 1.79646 1.23618 2.22475C0.650391 2.81108 0.650391 3.75477 0.650391 5.64214L0.650391 9.97951C0.650391 11.8669 0.650391 12.8106 1.23618 13.3969C1.82196 13.9832 2.76477 13.9832 4.65039 13.9832L6.31706 13.9832M9.31445 1.6499C10.3517 1.68102 10.97 1.79646 11.3979 2.22475C11.9837 2.81108 11.9837 3.75477 11.9837 5.64214V8.31657" stroke="#383838" stroke-width="1.3" stroke-linecap="round"/>
<path d="M3.31738 1.81657C3.31738 1.17224 3.83972 0.649902 4.48405 0.649902H8.15072C8.79505 0.649902 9.31738 1.17224 9.31738 1.81657C9.31738 2.4609 8.79505 2.98324 8.15072 2.98324H4.48405C3.83972 2.98324 3.31738 2.4609 3.31738 1.81657Z" stroke="#383838" stroke-width="1.3" stroke-linejoin="round"/>
</svg>
