<svg width="15" height="14" viewBox="0 0 15 14" fill="none" xmlns="http://www.w3.org/2000/svg">
<path d="M10.6494 5.85287C10.6494 5.62246 10.6494 5.50725 10.6841 5.40455C10.7849 5.1062 11.0506 4.99041 11.3168 4.86916C11.6161 4.73285 11.7657 4.66469 11.914 4.6527C12.0823 4.63909 12.2509 4.67535 12.3948 4.75609C12.5855 4.86313 12.7185 5.06652 12.8547 5.23191C13.4836 5.9958 13.798 6.37775 13.9131 6.79894C14.006 7.13884 14.006 7.4943 13.9131 7.8342C13.7453 8.44853 13.2151 8.96347 12.8226 9.44016C12.6219 9.684 12.5215 9.80592 12.3948 9.87705C12.2509 9.95778 12.0823 9.99405 11.914 9.98044C11.7657 9.96845 11.6161 9.90029 11.3168 9.76398C11.0506 9.64273 10.7849 9.52694 10.6841 9.22859C10.6494 9.12589 10.6494 9.01068 10.6494 8.78027V5.85287Z" stroke="#383838" stroke-width="1.3"/>
<path d="M3.9834 5.85298C3.9834 5.56281 3.97525 5.30204 3.74067 5.09804C3.65535 5.02383 3.54223 4.97231 3.316 4.86927C3.01674 4.73296 2.8671 4.6648 2.71884 4.65281C2.27401 4.61684 2.03468 4.92044 1.77815 5.23202C1.14923 5.99591 0.834773 6.37786 0.719708 6.79905C0.62685 7.13895 0.62685 7.49441 0.719708 7.83431C0.887534 8.44863 1.41774 8.96358 1.81021 9.44027C2.05759 9.74075 2.29391 10.0149 2.71884 9.98055C2.8671 9.96855 3.01674 9.9004 3.316 9.76409C3.54223 9.66105 3.65535 9.60953 3.74067 9.53532C3.97525 9.33132 3.9834 9.07054 3.9834 8.78038V5.85298Z" stroke="#383838" stroke-width="1.3"/>
<path d="M2.64941 4.6499C2.64941 2.44076 4.73875 0.649902 7.31608 0.649902C9.89341 0.649902 11.9827 2.44076 11.9827 4.6499" stroke="#383838" stroke-width="1.3" stroke-linecap="square" stroke-linejoin="round"/>
<path d="M11.9834 9.98315V10.5165C11.9834 11.6947 10.7895 12.6498 9.31673 12.6498H7.9834" stroke="#383838" stroke-width="1.3" stroke-linecap="round" stroke-linejoin="round"/>
</svg>
