<svg width="13" height="15" viewBox="0 0 13 15" fill="none" xmlns="http://www.w3.org/2000/svg">
<path d="M11.9837 6.31657V5.98324C11.9837 3.46908 11.9837 2.212 11.2026 1.43095C10.4216 0.649902 9.1645 0.649902 6.65034 0.649902H5.98375C3.46961 0.649902 2.21254 0.649902 1.4315 1.43094C0.65045 2.21198 0.650439 3.46905 0.650417 5.98319L0.650391 8.98324C0.650372 11.1749 0.650362 12.2707 1.25565 13.0082C1.36647 13.1433 1.4903 13.2671 1.62534 13.3779C2.3629 13.9832 3.45872 13.9832 5.65035 13.9832" stroke="#383838" stroke-width="1.3" stroke-linecap="round" stroke-linejoin="round"/>
<path d="M3.31738 3.98315H9.31738" stroke="#383838" stroke-width="1.3" stroke-linecap="round" stroke-linejoin="round"/>
<path d="M3.31738 7.31665H7.31738" stroke="#383838" stroke-width="1.3" stroke-linecap="round" stroke-linejoin="round"/>
<path d="M11.9834 12.6499L11.9834 10.6499C11.9834 9.69694 11.088 8.6499 9.9834 8.6499C8.87883 8.6499 7.9834 9.69694 7.9834 10.6499L7.9834 12.9832C7.9834 13.5355 8.43111 13.9832 8.9834 13.9832C9.53568 13.9832 9.9834 13.5355 9.9834 12.9832V10.6499" stroke="#383838" stroke-width="1.3" stroke-linecap="round" stroke-linejoin="round"/>
</svg>
