<svg width="15" height="13" viewBox="0 0 15 13" fill="none" xmlns="http://www.w3.org/2000/svg">
<path d="M0.650391 2.31665L5.25907 4.92796C6.95812 5.89066 7.67599 5.89066 9.37504 4.92796L13.9837 2.31665" stroke="#383838" stroke-width="1.3" stroke-linejoin="round"/>
<path d="M0.660901 7.30032C0.704485 9.34401 0.726276 10.3659 1.48036 11.1228C2.23445 11.8798 3.28395 11.9061 5.38294 11.9589C6.6766 11.9914 7.95752 11.9914 9.25118 11.9589C11.3502 11.9061 12.3997 11.8798 13.1538 11.1228C13.9078 10.3659 13.9296 9.34401 13.9732 7.30032C13.9872 6.6432 13.9872 5.98995 13.9732 5.33283C13.9296 3.28914 13.9078 2.2673 13.1538 1.51034C12.3997 0.75339 11.3502 0.72702 9.25118 0.674282C7.95752 0.641777 6.6766 0.641776 5.38294 0.674277C3.28394 0.727012 2.23445 0.753379 1.48036 1.51033C0.726273 2.26729 0.704482 3.28913 0.6609 5.33282C0.646887 5.98995 0.646887 6.64319 0.660901 7.30032Z" stroke="#383838" stroke-width="1.3" stroke-linejoin="round"/>
</svg>
