<svg width="15" height="15" viewBox="0 0 15 15" fill="none" xmlns="http://www.w3.org/2000/svg">
<path d="M13.3204 4.07229L12.9913 3.50122C12.7425 3.06934 12.618 2.85339 12.4063 2.76728C12.1946 2.68117 11.9551 2.74912 11.4763 2.88502L10.6628 3.11415C10.357 3.18465 10.0363 3.14466 9.7571 3.00122L9.53251 2.87164C9.29312 2.71832 9.10899 2.49225 9.00707 2.22652L8.78443 1.5616C8.63805 1.12159 8.56486 0.901579 8.39061 0.775741C8.21636 0.649902 7.9849 0.649902 7.522 0.649902H6.77882C6.31591 0.649902 6.08446 0.649902 5.91021 0.775741C5.73596 0.901579 5.66277 1.12159 5.51638 1.5616L5.29375 2.22652C5.19182 2.49225 5.00769 2.71832 4.7683 2.87164L4.54372 3.00122C4.26455 3.14466 3.94378 3.18465 3.63805 3.11415L2.82455 2.88502C2.34567 2.74912 2.10622 2.68117 1.8945 2.76728C1.68279 2.85339 1.55836 3.06934 1.30949 3.50122L0.980434 4.07229C0.747162 4.47712 0.630526 4.67954 0.653162 4.89502C0.6758 5.1105 0.831943 5.28415 1.14423 5.63144L1.83159 6.39991C1.99959 6.61259 2.11886 6.98324 2.11886 7.31646C2.11886 7.6499 1.99963 8.02044 1.83161 8.23316L1.14423 9.00164C0.831946 9.34894 0.675801 9.52258 0.653164 9.73806C0.630526 9.95354 0.747165 10.156 0.980435 10.5608L1.30948 11.1318C1.55834 11.5637 1.68279 11.7797 1.8945 11.8658C2.10623 11.9519 2.34567 11.8839 2.82457 11.748L3.63802 11.5189C3.94381 11.4484 4.26464 11.4884 4.54384 11.6319L4.76839 11.7615C5.00773 11.9148 5.19182 12.1409 5.29372 12.4065L5.51638 13.0715C5.66277 13.5116 5.73596 13.7316 5.91021 13.8574C6.08446 13.9832 6.31591 13.9832 6.77882 13.9832H7.522C7.9849 13.9832 8.21636 13.9832 8.39061 13.8574C8.56486 13.7316 8.63805 13.5116 8.78443 13.0715L9.00709 12.4065C9.109 12.1409 9.29309 11.9148 9.53243 11.7615L9.75698 11.6319C10.0362 11.4884 10.357 11.4484 10.6628 11.5189L11.4762 11.748C11.9551 11.8839 12.1946 11.9519 12.4063 11.8658C12.618 11.7797 12.7425 11.5637 12.9913 11.1318L12.9913 11.1318L13.3204 10.5608C13.5536 10.156 13.6703 9.95354 13.6477 9.73806C13.625 9.52258 13.4689 9.34894 13.1566 9.00164L12.4692 8.23316C12.3012 8.02044 12.182 7.6499 12.182 7.31646C12.182 6.98324 12.3012 6.61259 12.4692 6.39991L13.1566 5.63144C13.4689 5.28415 13.625 5.1105 13.6477 4.89502C13.6703 4.67954 13.5537 4.47712 13.3204 4.07229Z" stroke="#383838" stroke-width="1.3" stroke-linecap="round"/>
<path d="M9.45475 7.31136C9.45475 8.60002 8.41008 9.64469 7.12142 9.64469C5.83275 9.64469 4.78809 8.60002 4.78809 7.31136C4.78809 6.0227 5.83275 4.97803 7.12142 4.97803C8.41008 4.97803 9.45475 6.0227 9.45475 7.31136Z" stroke="#383838" stroke-width="1.3"/>
</svg>
