<svg width="15" height="15" viewBox="0 0 15 15" fill="none" xmlns="http://www.w3.org/2000/svg">
<path d="M3.19104 0C3.6838 -8.14841e-06 4.08881 -1.48453e-05 4.41647 0.0311395C4.75696 0.0635134 5.06519 0.133023 5.34556 0.304833C5.62391 0.475403 5.85793 0.709428 6.0285 0.987773C6.20031 1.26814 6.26982 1.57637 6.3022 1.91686C6.33335 2.24452 6.33334 2.64953 6.33333 3.14229V3.19104C6.33334 3.6838 6.33335 4.08881 6.3022 4.41647C6.26982 4.75696 6.20031 5.06519 6.0285 5.34556C5.85793 5.62391 5.62391 5.85793 5.34556 6.0285C5.06519 6.20031 4.75696 6.26982 4.41647 6.3022C4.08881 6.33335 3.6838 6.33334 3.19104 6.33333H3.14229C2.64953 6.33334 2.24452 6.33335 1.91686 6.3022C1.57637 6.26982 1.26814 6.20031 0.987773 6.0285C0.709428 5.85793 0.475403 5.62391 0.304833 5.34556C0.133023 5.06519 0.0635134 4.75696 0.0311395 4.41647C-1.48456e-05 4.08881 -8.14843e-06 3.6838 0 3.19104V3.19103V3.1423V3.1423C-8.14841e-06 2.64953 -1.48453e-05 2.24452 0.0311395 1.91686C0.0635134 1.57637 0.133023 1.26814 0.304833 0.987773C0.475403 0.709428 0.709428 0.475403 0.987773 0.304833C1.26814 0.133023 1.57637 0.0635134 1.91686 0.0311395C2.24452 -1.48456e-05 2.64953 -8.14843e-06 3.14229 0H3.1423H3.19103H3.19104Z" fill="#197668"/>
<path d="M3.19104 8C3.6838 7.99999 4.08881 7.99999 4.41647 8.03114C4.75696 8.06351 5.06519 8.13302 5.34556 8.30483C5.62391 8.4754 5.85793 8.70943 6.0285 8.98777C6.20031 9.26814 6.26982 9.57637 6.3022 9.91686C6.33335 10.2445 6.33334 10.6495 6.33333 11.1423V11.191C6.33334 11.6838 6.33335 12.0888 6.3022 12.4165C6.26982 12.757 6.20031 13.0652 6.0285 13.3456C5.85793 13.6239 5.62391 13.8579 5.34556 14.0285C5.06519 14.2003 4.75696 14.2698 4.41647 14.3022C4.08881 14.3333 3.6838 14.3333 3.19104 14.3333H3.14229C2.64953 14.3333 2.24452 14.3333 1.91686 14.3022C1.57637 14.2698 1.26814 14.2003 0.987773 14.0285C0.709428 13.8579 0.475403 13.6239 0.304833 13.3456C0.133023 13.0652 0.0635134 12.757 0.0311395 12.4165C-1.48456e-05 12.0888 -8.14843e-06 11.6838 0 11.191V11.191V11.1423V11.1423C-8.14841e-06 10.6495 -1.48453e-05 10.2445 0.0311395 9.91686C0.0635134 9.57637 0.133023 9.26814 0.304833 8.98777C0.475403 8.70943 0.709428 8.4754 0.987773 8.30483C1.26814 8.13302 1.57637 8.06351 1.91686 8.03114C2.24452 7.99999 2.64953 7.99999 3.14229 8H3.1423H3.19103H3.19104Z" fill="#197668"/>
<path d="M11.191 0C11.6838 -8.14841e-06 12.0888 -1.48453e-05 12.4165 0.0311395C12.757 0.0635134 13.0652 0.133023 13.3456 0.304833C13.6239 0.475403 13.8579 0.709428 14.0285 0.987773C14.2003 1.26814 14.2698 1.57637 14.3022 1.91686C14.3333 2.24452 14.3333 2.64953 14.3333 3.14229V3.19104C14.3333 3.6838 14.3333 4.08881 14.3022 4.41647C14.2698 4.75696 14.2003 5.06519 14.0285 5.34556C13.8579 5.62391 13.6239 5.85793 13.3456 6.0285C13.0652 6.20031 12.757 6.26982 12.4165 6.3022C12.0888 6.33335 11.6838 6.33334 11.191 6.33333H11.1423C10.6495 6.33334 10.2445 6.33335 9.91686 6.3022C9.57637 6.26982 9.26814 6.20031 8.98777 6.0285C8.70943 5.85793 8.4754 5.62391 8.30483 5.34556C8.13302 5.06519 8.06351 4.75696 8.03114 4.41647C7.99999 4.08881 7.99999 3.6838 8 3.19104V3.19103V3.1423V3.1423C7.99999 2.64953 7.99999 2.24452 8.03114 1.91686C8.06351 1.57637 8.13302 1.26814 8.30483 0.987773C8.4754 0.709428 8.70943 0.475403 8.98777 0.304833C9.26814 0.133023 9.57637 0.0635134 9.91686 0.0311395C10.2445 -1.48456e-05 10.6495 -8.14843e-06 11.1423 0H11.1423H11.191H11.191Z" fill="#197668"/>
<path d="M11.191 8C11.6838 7.99999 12.0888 7.99999 12.4165 8.03114C12.757 8.06351 13.0652 8.13302 13.3456 8.30483C13.6239 8.4754 13.8579 8.70943 14.0285 8.98777C14.2003 9.26814 14.2698 9.57637 14.3022 9.91686C14.3333 10.2445 14.3333 10.6495 14.3333 11.1423V11.191C14.3333 11.6838 14.3333 12.0888 14.3022 12.4165C14.2698 12.757 14.2003 13.0652 14.0285 13.3456C13.8579 13.6239 13.6239 13.8579 13.3456 14.0285C13.0652 14.2003 12.757 14.2698 12.4165 14.3022C12.0888 14.3333 11.6838 14.3333 11.191 14.3333H11.1423C10.6495 14.3333 10.2445 14.3333 9.91686 14.3022C9.57637 14.2698 9.26814 14.2003 8.98777 14.0285C8.70943 13.8579 8.4754 13.6239 8.30483 13.3456C8.13302 13.0652 8.06351 12.757 8.03114 12.4165C7.99999 12.0888 7.99999 11.6838 8 11.191V11.191V11.1423V11.1423C7.99999 10.6495 7.99999 10.2445 8.03114 9.91686C8.06351 9.57637 8.13302 9.26814 8.30483 8.98777C8.4754 8.70943 8.70943 8.4754 8.98777 8.30483C9.26814 8.13302 9.57637 8.06351 9.91686 8.03114C10.2445 7.99999 10.6495 7.99999 11.1423 8H11.1423H11.191H11.191Z" fill="#197668"/>
</svg>
