<svg width="14" height="15" viewBox="0 0 14 15" fill="none" xmlns="http://www.w3.org/2000/svg">
<path d="M5.51346 9.3277C5.48303 8.66638 5.03117 8.65015 4.4182 8.65015C3.47393 8.65015 3.31738 8.87573 3.31738 9.76126V10.8724C3.31738 11.7579 3.47393 11.9835 4.4182 11.9835C5.03117 11.9835 5.48303 11.9672 5.51346 11.3059M12.6507 8.65015L11.675 11.2583C11.4942 11.7418 11.4038 11.9835 11.2606 11.9835C11.1174 11.9835 11.027 11.7418 10.8461 11.2583L9.87043 8.65015M8.46497 8.65016H7.81663C7.55754 8.65016 7.428 8.65016 7.32581 8.69245C6.97781 8.83646 6.98255 9.17501 6.98255 9.48349C6.98255 9.79197 6.97781 10.1305 7.32581 10.2745C7.428 10.3168 7.55754 10.3168 7.81663 10.3168C8.07572 10.3168 8.20527 10.3168 8.30745 10.3591C8.65545 10.5031 8.65072 10.8417 8.65072 11.1501C8.65072 11.4586 8.65545 11.7972 8.30745 11.9412C8.20527 11.9835 8.07572 11.9835 7.81663 11.9835H7.11049" stroke="#383838" stroke-width="1.1" stroke-linecap="round"/>
<path d="M11.3171 6.65015C11.3171 5.98348 11.3171 5.60388 11.2156 5.35885C11.1141 5.11382 10.9214 4.92114 10.536 4.53577L7.37831 1.37807C7.04572 1.04548 6.87943 0.879182 6.6734 0.780643C6.63055 0.760149 6.58664 0.74196 6.54185 0.726152C6.32649 0.650146 6.09131 0.650146 5.62095 0.650146C3.4576 0.650146 2.37593 0.650146 1.64328 1.24086C1.49527 1.3602 1.36044 1.49502 1.24111 1.64303C0.650391 2.37568 0.650391 3.45736 0.650391 5.62071V8.65015C0.650391 11.1643 0.650391 12.4214 1.43144 13.2024C2.21249 13.9835 3.46957 13.9835 5.98372 13.9835H11.3171M6.65039 0.98348V1.31681C6.65039 3.20243 6.65039 4.14524 7.23618 4.73103C7.82196 5.31681 8.76477 5.31681 10.6504 5.31681H10.9837" stroke="#383838" stroke-width="1.3" stroke-linecap="round" stroke-linejoin="round"/>
</svg>
