<svg width="18" height="15" viewBox="0 0 18 15" fill="none" xmlns="http://www.w3.org/2000/svg">
<path d="M0 13.4551C0 14.1015 0.528108 14.6251 1.17878 14.6251H1.19573C0.535087 14.6251 0 14.1015 0 13.4551Z" fill="#FBBC05"/>
<path d="M10.1302 4.38748V7.44214L14.2485 4.12033V1.16999C14.2485 0.523572 13.7204 0 13.0697 0H4.14762L4.13965 4.38748H10.1302Z" fill="#FBBC05"/>
<path d="M10.1296 10.498H4.12905L4.12207 14.6252H13.0691C13.7208 14.6252 14.2479 14.1016 14.2479 13.4552V10.7915L10.1296 7.44336V10.498Z" fill="#34A853"/>
<path d="M4.14718 0L0 4.38748H4.1402L4.14718 0Z" fill="#EA4335"/>
<path d="M0 10.4978V13.455C0 14.1014 0.535087 14.625 1.19573 14.625H4.12227L4.12924 10.4978H0Z" fill="#1967D2"/>
<path d="M4.1402 4.38745H0V10.4977H4.12924L4.1402 4.38745Z" fill="#4285F4"/>
<path d="M17.8691 12.4148V2.37238C17.6369 1.03956 16.1751 2.56738 16.1751 2.56738L14.249 4.12054V10.7905L17.0062 13.032C18.0016 13.1626 17.8691 12.4148 17.8691 12.4148Z" fill="#34A853"/>
<path d="M10.1299 7.44217L14.2492 10.7913V4.12134L10.1299 7.44217Z" fill="#188038"/>
</svg>
