<svg width="15" height="15" viewBox="0 0 15 15" fill="none" xmlns="http://www.w3.org/2000/svg">
<path d="M0.650391 3.1499C0.650391 1.97139 0.650391 1.38214 1.01651 1.01602C1.38262 0.649902 1.97188 0.649902 3.15039 0.649902C4.3289 0.649902 4.91816 0.649902 5.28427 1.01602C5.65039 1.38214 5.65039 1.97139 5.65039 3.1499V11.4832C5.65039 12.6617 5.65039 13.251 5.28427 13.6171C4.91816 13.9832 4.3289 13.9832 3.15039 13.9832C1.97188 13.9832 1.38262 13.9832 1.01651 13.6171C0.650391 13.251 0.650391 12.6617 0.650391 11.4832V3.1499Z" stroke="white" stroke-width="1.3"/>
<path d="M8.9834 3.1499C8.9834 1.97139 8.9834 1.38214 9.34951 1.01602C9.71563 0.649902 10.3049 0.649902 11.4834 0.649902C12.6619 0.649902 13.2512 0.649902 13.6173 1.01602C13.9834 1.38214 13.9834 1.97139 13.9834 3.1499V11.4832C13.9834 12.6617 13.9834 13.251 13.6173 13.6171C13.2512 13.9832 12.6619 13.9832 11.4834 13.9832C10.3049 13.9832 9.71563 13.9832 9.34951 13.6171C8.9834 13.251 8.9834 12.6617 8.9834 11.4832V3.1499Z" stroke="white" stroke-width="1.3"/>
</svg>
