<svg width="20" height="20" viewBox="0 0 20 20" fill="none" xmlns="http://www.w3.org/2000/svg">
<path d="M3.33301 10.0002C3.33301 7.26747 3.33301 5.90113 4.01119 4.93258C4.26209 4.57425 4.57376 4.26258 4.9321 4.01168C5.90064 3.3335 7.26698 3.3335 9.99967 3.3335C12.7324 3.3335 14.0987 3.3335 15.0673 4.01168C15.4256 4.26258 15.7373 4.57425 15.9882 4.93258C16.6663 5.90113 16.6663 7.26747 16.6663 10.0002C16.6663 12.7329 16.6663 14.0992 15.9882 15.0677C15.7373 15.4261 15.4256 15.7377 15.0673 15.9886C14.0987 16.6668 12.7324 16.6668 9.99967 16.6668C7.26698 16.6668 5.90064 16.6668 4.9321 15.9886C4.57376 15.7377 4.26209 15.4261 4.01119 15.0677C3.33301 14.0992 3.33301 12.7329 3.33301 10.0002Z" stroke="#383838" stroke-width="1.3"/>
</svg>
