<svg width="16" height="16" viewBox="0 0 16 16" fill="none" xmlns="http://www.w3.org/2000/svg">
<path fill-rule="evenodd" clip-rule="evenodd" d="M3.33301 4C3.33301 3.05719 3.33301 2.58579 3.6259 2.29289C3.91879 2 4.3902 2 5.33301 2H8.38564C10.0134 2 11.333 3.34315 11.333 5C11.333 6.65685 10.0134 8 8.38564 8H3.33301V4Z" stroke="#383838" stroke-width="1.5" stroke-linecap="round" stroke-linejoin="round"/>
<path d="M8.28539 8H9.11079C10.7063 8 11.9997 9.34315 11.9997 11C11.9997 12.6569 10.7063 14 9.11079 14H5.33301C4.3902 14 3.91879 14 3.6259 13.7071C3.33301 13.4142 3.33301 12.9428 3.33301 12V8" stroke="#383838" stroke-width="1.5" stroke-linecap="round" stroke-linejoin="round"/>
</svg>
