<svg width="26" height="26" viewBox="0 0 26 26" fill="none" xmlns="http://www.w3.org/2000/svg">
<path d="M1.625 9.425C1.625 6.69475 1.625 5.32962 2.15634 4.2868C2.62373 3.36951 3.36951 2.62373 4.2868 2.15634C5.32962 1.625 6.69474 1.625 9.425 1.625H16.575C19.3053 1.625 20.6704 1.625 21.7132 2.15634C22.6305 2.62373 23.3763 3.36951 23.8437 4.2868C24.375 5.32962 24.375 6.69474 24.375 9.425V16.575C24.375 19.3053 24.375 20.6704 23.8437 21.7132C23.3763 22.6305 22.6305 23.3763 21.7132 23.8437C20.6704 24.375 19.3053 24.375 16.575 24.375H9.425C6.69475 24.375 5.32962 24.375 4.2868 23.8437C3.36951 23.3763 2.62373 22.6305 2.15634 21.7132C1.625 20.6704 1.625 19.3053 1.625 16.575V9.425Z" fill="#4087FC"/>
<path d="M6.71667 8.125C6.14827 8.125 5.6875 8.64467 5.6875 9.28571V14.9152C5.6875 16.5498 6.86247 17.875 8.31188 17.875L14.4083 17.817C14.9767 17.817 15.4375 17.2973 15.4375 16.6563V10.9688C15.4375 9.33411 14.0432 8.12502 12.5938 8.12502L6.71667 8.125Z" fill="white"/>
<path d="M16.8287 10.3412C16.4609 10.7048 16.25 11.2297 16.25 11.7813V14.1369C16.25 14.6885 16.4609 15.2134 16.8287 15.577L19.1172 17.5926C19.5828 18.0531 20.3125 17.6801 20.3125 16.9817V9.04732C20.3125 8.34888 19.5828 7.97593 19.1172 8.43637L16.8287 10.3412Z" fill="white"/>
</svg>
