<svg width="23" height="23" viewBox="0 0 23 23" fill="none" xmlns="http://www.w3.org/2000/svg">
<path d="M0 7.8C0 5.06975 0 3.70462 0.531343 2.6618C0.998726 1.74451 1.74451 0.998726 2.6618 0.531343C3.70462 0 5.06974 0 7.8 0H14.95C17.6803 0 19.0454 0 20.0882 0.531343C21.0055 0.998726 21.7513 1.74451 22.2187 2.6618C22.75 3.70462 22.75 5.06974 22.75 7.8V14.95C22.75 17.6803 22.75 19.0454 22.2187 20.0882C21.7513 21.0055 21.0055 21.7513 20.0882 22.2187C19.0454 22.75 17.6803 22.75 14.95 22.75H7.8C5.06975 22.75 3.70462 22.75 2.6618 22.2187C1.74451 21.7513 0.998726 21.0055 0.531343 20.0882C0 19.0454 0 17.6803 0 14.95V7.8Z" fill="#4087FC"/>
</svg>
